<?xml version="1.0" encoding="utf-8"?>
<!-- Generator: Adobe Illustrator 25.2.1, SVG Export Plug-In . SVG Version: 6.00 Build 0)  -->
<svg version="1.1" id="Layer_1" xmlns="http://www.w3.org/2000/svg" xmlns:xlink="http://www.w3.org/1999/xlink" x="0px" y="0px"
	 viewBox="0 0 84.53 73.53" style="enable-background:new 0 0 84.53 73.53;" xml:space="preserve">
<style type="text/css">
	.st0{fill:#333132;}
	.st1{opacity:0.3;}
	.st2{fill:#202027;}
	.st3{opacity:0.59;}
	.st4{opacity:0.3;fill:none;stroke:#202027;stroke-width:0.155;}
	.st5{fill:none;stroke:#202027;stroke-width:0.308;}
	.st6{fill:none;stroke:#202027;stroke-width:0.31;}
	.st7{fill:#FFFFFF;}
	.st8{fill:#231F20;}
</style>
<g>
	<path class="st8" d="M34.82,40.78c0-1.07,0.14-2.1,0.42-3.08c0.28-0.99,0.84-2.02,1.68-3.1c0.84-1.08,1.93-1.99,3.28-2.72l0.38,1.3
		c-1.34,0.7-2.3,1.58-2.88,2.64s-0.87,2.06-0.87,3h0.1c0.44-0.31,0.93-0.46,1.45-0.46c0.83,0,1.53,0.33,2.08,0.99
		c0.55,0.66,0.83,1.5,0.83,2.52c0,0.85-0.26,1.65-0.78,2.38s-1.3,1.11-2.33,1.11c-1.1,0-1.94-0.45-2.51-1.35
		S34.82,42.04,34.82,40.78z M43.23,40.78c0-1.07,0.14-2.1,0.42-3.08c0.28-0.99,0.84-2.02,1.68-3.1c0.84-1.08,1.93-1.99,3.28-2.72
		l0.38,1.3c-1.34,0.7-2.3,1.58-2.88,2.64s-0.87,2.06-0.87,3h0.1c0.44-0.31,0.93-0.46,1.45-0.46c0.83,0,1.53,0.33,2.08,0.99
		c0.55,0.66,0.83,1.5,0.83,2.52c0,0.85-0.26,1.65-0.78,2.38c-0.52,0.74-1.3,1.11-2.33,1.11c-1.11,0-1.94-0.45-2.51-1.35
		C43.52,43.12,43.23,42.04,43.23,40.78z"/>
</g>
</svg>
