<?xml version="1.0" encoding="utf-8"?>
<!-- Generator: Adobe Illustrator 25.2.1, SVG Export Plug-In . SVG Version: 6.00 Build 0)  -->
<svg version="1.1" id="Layer_1" xmlns="http://www.w3.org/2000/svg" xmlns:xlink="http://www.w3.org/1999/xlink" x="0px" y="0px"
	 viewBox="0 0 269 234" style="enable-background:new 0 0 269 234;" xml:space="preserve">
<style type="text/css">
	.st0{fill:#FFFFFF;}
	.st1{opacity:2;}
	.st2{fill:#FFFFFF;}
	.st3{opacity:2;}
	.st4{opacity:2;fill:none;stroke:#FFFFFF;stroke-width:12.155;}
	.st5{fill:none;stroke:#FFFFFF;stroke-width:12.308;}
	.st6{fill:none;stroke:#FFFFFF;stroke-width:12.31;}
	.st7{fill:#FFFFFF;}
</style>
<g>
	<g class="st1">
		<path class="st2" d="M134.5,156.5c-21.78,0-39.5-17.72-39.5-39.5s17.72-39.5,39.5-39.5S174,95.22,174,117
			S156.28,156.5,134.5,156.5z M134.5,78.22c-21.39,0-38.78,17.4-38.78,38.78c0,21.39,17.4,38.79,38.78,38.79s38.78-17.4,38.78-38.79
			C173.28,95.62,155.89,78.22,134.5,78.22z"/>
	</g>
	<g class="st3">
		<g>
			<rect x="117.96" y="116.29" class="st2" width="32.66" height="1.42"/>
		</g>
		<g>
			<polygon class="st2" points="138.86,129.3 137.89,128.26 149.99,117 137.89,105.75 138.86,104.7 152.09,117 			"/>
		</g>
	</g>
</g>
</svg>