<svg id="Layer_1" data-name="Layer 1" xmlns="http://www.w3.org/2000/svg" viewBox="0 18 70 70"><defs><style>.cls-1{fill:#fff;}</style></defs><path class="cls-1" d="M30.35,21.77l-.2-.23c.1-.1.19-.21.28-.31s.19-.2.28-.31.21-.17.23-.36c-.51,0-1,0-1.46,0a1.35,1.35,0,0,1-.78-.21,6,6,0,0,0-3.17-.89,6.17,6.17,0,0,0-3.3.93,1.06,1.06,0,0,1-.57.17c-.46,0-.92,0-1.39,0-.07,0-.15,0-.22.08l.8.88-.16.19-.15.18a2.69,2.69,0,0,0-.49,2.32,2.75,2.75,0,0,0,4.29,1.62c.28-.2.26-.24.52.05l.44.48a.42.42,0,0,0,.26.16l.29-.33c.14-.14.27-.29.41-.44s.13-.11.28,0l.38.26a2.62,2.62,0,0,0,1.93.28A2.76,2.76,0,0,0,30.35,21.77Zm-7.61,3.7a1.87,1.87,0,0,1-1.88-1.9,1.87,1.87,0,0,1,3.74,0A1.86,1.86,0,0,1,22.74,25.47Zm2.79-2.36c-.46-1.05-.36-1.3-2-2.34a5.33,5.33,0,0,1,4,0A3.26,3.26,0,0,0,25.53,23.11Zm2.74,2.36a1.88,1.88,0,1,1,1.86-1.9A1.85,1.85,0,0,1,28.27,25.47Z"/><path class="cls-1" d="M22.71,24.57a1,1,0,1,1,1-.95A1,1,0,0,1,22.71,24.57Z"/><path class="cls-1" d="M28.29,24.57a1,1,0,1,1,0-2,1,1,0,0,1,0,2Z"/></svg>