<svg id="Layer_1" data-name="Layer 1" xmlns="http://www.w3.org/2000/svg" viewBox="0 0 51 46"><defs><style>.cls-1{fill:#333132;}.cls-2{fill:#fff;}</style></defs><rect class="cls-1" x="-11" y="-6" width="144" height="59"/><path class="cls-2" d="M25.47,28.06a.55.55,0,0,1-.5-.3,1.47,1.47,0,0,1-.15-.41l0-.1A5.22,5.22,0,0,0,24,25.78s-.19-.25-.39-.51-.55-.76-.72-1a4.6,4.6,0,0,1-.6-1A3.7,3.7,0,0,1,22,22.06a3.91,3.91,0,0,1,.25-1.9,3.44,3.44,0,0,1,.56-.93A3.34,3.34,0,0,1,24.74,18,4.41,4.41,0,0,1,25.79,18,3.43,3.43,0,0,1,28.1,19.1a3.59,3.59,0,0,1,.53.8,2.62,2.62,0,0,1,.33,1h0a3.66,3.66,0,0,1,.06,1,4.22,4.22,0,0,1-.61,1.9c-.3.48-.65.92-1,1.35l-.13.17a8,8,0,0,0-.86,1.33,4.94,4.94,0,0,0-.33.88.66.66,0,0,1-.51.52Zm.14-9.5a6.5,6.5,0,0,0-.73.06,2.8,2.8,0,0,0-1.6,1,2.69,2.69,0,0,0-.47.77,3.13,3.13,0,0,0-.2,1.59,3,3,0,0,0,.27,1,4.3,4.3,0,0,0,.53.92c.16.23.47.64.72,1l.39.52a5.57,5.57,0,0,1,.86,1.65l0,.12c0,.08.05.17.08.23a.16.16,0,0,0,0-.06,6.28,6.28,0,0,1,.36-1,9.27,9.27,0,0,1,.93-1.43l.13-.16a14.36,14.36,0,0,0,.94-1.31,3.52,3.52,0,0,0,.52-1.62,3.2,3.2,0,0,0,0-.87h0a2.59,2.59,0,0,0-.27-.79,3,3,0,0,0-.45-.67,2.81,2.81,0,0,0-1.93-1Zm-.09,4.62a1.62,1.62,0,1,1,1.58-1.61A1.6,1.6,0,0,1,25.52,23.18Zm0-2.61a1,1,0,1,0,1,1A1,1,0,0,0,25.52,20.57Z"/></svg>